<svg width="30" height="31" viewBox="0 0 30 31" fill="none" xmlns="http://www.w3.org/2000/svg">
<path opacity="0.4" d="M7.11396 5.939L21.2052 1.23671C27.5322 -0.872286 30.9691 2.58022 28.8757 8.90722L24.1734 22.9984C21.0177 32.4811 15.8312 32.4811 12.6755 22.9984L11.2851 18.8117L7.09834 17.4213C-2.36872 14.2813 -2.36872 9.1103 7.11396 5.939Z" fill="white"/>
<path d="M14.9414 14.7978L20.8935 8.83008L14.9414 14.7978Z" fill="white"/>
<path d="M14.9412 15.9692C14.6444 15.9692 14.3476 15.8599 14.1132 15.6255C13.6602 15.1725 13.6602 14.4226 14.1132 13.9696L20.0497 8.00189C20.5027 7.54885 21.2526 7.54885 21.7056 8.00189C22.1587 8.45494 22.1587 9.2048 21.7056 9.65785L15.7692 15.6255C15.5348 15.8442 15.238 15.9692 14.9412 15.9692Z" fill="white"/>
</svg>
