<svg width="54" height="54" viewBox="0 0 54 54" fill="none" xmlns="http://www.w3.org/2000/svg">
<rect width="54" height="54" fill="white"/>
<path fill-rule="evenodd" clip-rule="evenodd" d="M47.25 31.5C47.25 42.6838 38.1838 51.75 27 51.75C15.8162 51.75 6.75 42.6838 6.75 31.5C6.75 20.3162 15.8162 11.25 27 11.25C38.1838 11.25 47.25 20.3162 47.25 31.5ZM27 45.25C34.5939 45.25 40.75 39.0939 40.75 31.5C40.75 23.9061 34.5939 17.75 27 17.75C19.4061 17.75 13.25 23.9061 13.25 31.5C13.25 39.0939 19.4061 45.25 27 45.25ZM27 47.25C35.6985 47.25 42.75 40.1985 42.75 31.5C42.75 22.8015 35.6985 15.75 27 15.75C18.3015 15.75 11.25 22.8015 11.25 31.5C11.25 40.1985 18.3015 47.25 27 47.25ZM28 24.75C28 24.1977 27.5523 23.75 27 23.75C26.4477 23.75 26 24.1977 26 24.75V31.5C26 32.0523 26.4477 32.5 27 32.5C27.5523 32.5 28 32.0523 28 31.5V24.75Z" fill="#222222"/>
<path d="M39.375 16.875L42.75 13.5" stroke="#222222" stroke-width="2" stroke-linecap="round"/>
<path d="M22.6533 5.33383C22.9097 5.09462 23.4747 4.88324 24.2606 4.73248C25.0465 4.58172 26.0094 4.5 27 4.5C27.9906 4.5 28.9535 4.58172 29.7394 4.73248C30.5253 4.88324 31.0903 5.09462 31.3467 5.33383" stroke="#222222" stroke-width="2" stroke-linecap="round"/>
</svg>
